<svg width="444" height="469" viewBox="0 0 444 469" fill="none" xmlns="http://www.w3.org/2000/svg">
<path d="M193.742 111.327C191.41 111.327 189.078 110.438 187.3 108.658L156.864 78.2227H142.111C137.079 78.2227 133 74.1432 133 69.1113C133 64.0794 137.079 60 142.111 60H160.638C163.054 60 165.371 60.9603 167.08 62.669L200.185 95.7735C203.743 99.3318 203.743 105.1 200.185 108.659C198.406 110.438 196.074 111.327 193.742 111.327Z" fill="#007A9F"/>
<path d="M189.104 318.309L216.13 294.448C192.755 274.164 177.949 244.25 177.949 210.944C177.949 149.987 227.542 100.394 288.5 100.394C290.257 100.394 292.004 100.439 293.742 100.521L302.756 65.2518C298.063 64.7956 293.31 64.5557 288.5 64.5557C207.781 64.5557 142.111 130.225 142.111 210.944C142.111 253.327 160.223 291.552 189.104 318.309Z" fill="#0060B9"/>
<path d="M383.258 118.009C380.926 118.009 378.594 117.12 376.816 115.34C373.257 111.782 373.257 106.013 376.816 102.455L409.92 69.35C411.629 67.642 413.946 66.6816 416.362 66.6816H434.889C439.921 66.6816 444 70.7611 444 75.793C444 80.8249 439.921 84.9043 434.889 84.9043H420.136L389.7 115.34C387.922 117.12 385.59 118.009 383.258 118.009Z" fill="#00607F"/>
<path d="M200.12 371H181.594C176.562 371 172.482 366.921 172.482 361.889C172.482 356.857 176.562 352.778 181.594 352.778H196.346L215.697 333.427C219.255 329.869 225.024 329.869 228.582 333.427C232.14 336.986 232.14 342.754 228.582 346.313L206.563 368.332C204.854 370.04 202.537 371 200.12 371Z" fill="#007A9F"/>
<path d="M399.051 210.944C399.051 212.471 399.011 213.988 398.949 215.5H434.811L434.281 197.679C427.555 123.154 364.747 64.5557 288.5 64.5557V100.394C349.458 100.394 399.051 149.987 399.051 210.944Z" fill="#FEB512"/>
<path d="M398.95 215.5C397.772 244.399 385.452 270.473 366.174 289.529L391.503 314.858C417.273 289.313 433.62 254.282 434.811 215.5H398.95Z" fill="#F14842"/>
<path d="M288.5 357.333C328.515 357.333 364.824 341.19 391.276 315.08L368.083 287.596C347.961 308.48 319.723 321.495 288.5 321.495C257.174 321.495 228.85 308.396 208.715 287.389L183.386 312.719C210.015 340.212 247.293 357.333 288.5 357.333Z" fill="#FEB512"/>
<path d="M288.502 357.333C328.516 357.333 364.825 341.189 391.276 315.08L368.083 287.596C347.961 308.48 319.724 321.494 288.501 321.495V357.333H288.502Z" fill="#002D69"/>
<path d="M200.8 229C200.507 229 200.267 228.907 200.08 228.72C199.893 228.533 199.8 228.293 199.8 228V202C199.8 201.707 199.893 201.467 200.08 201.28C200.267 201.093 200.507 201 200.8 201H213C215.293 201 217.173 201.32 218.64 201.96C220.107 202.6 221.187 203.52 221.88 204.72C222.6 205.893 222.96 207.293 222.96 208.92C222.96 209.88 222.773 210.733 222.4 211.48C222.053 212.2 221.613 212.8 221.08 213.28C220.573 213.76 220.093 214.107 219.64 214.32C220.653 214.8 221.547 215.587 222.32 216.68C223.12 217.773 223.52 219.053 223.52 220.52C223.52 222.28 223.12 223.8 222.32 225.08C221.547 226.333 220.4 227.307 218.88 228C217.387 228.667 215.547 229 213.36 229H200.8ZM206.96 223.8H212.56C213.707 223.8 214.573 223.467 215.16 222.8C215.747 222.133 216.04 221.373 216.04 220.52C216.04 219.587 215.733 218.8 215.12 218.16C214.533 217.52 213.68 217.2 212.56 217.2H206.96V223.8ZM206.96 212.12H212.2C213.293 212.12 214.107 211.84 214.64 211.28C215.2 210.72 215.48 210 215.48 209.12C215.48 208.267 215.2 207.573 214.64 207.04C214.107 206.48 213.293 206.2 212.2 206.2H206.96V212.12ZM237.124 229.4C233.977 229.4 231.471 228.547 229.604 226.84C227.737 225.133 226.764 222.6 226.684 219.24C226.684 219.053 226.684 218.813 226.684 218.52C226.684 218.227 226.684 218 226.684 217.84C226.764 215.733 227.231 213.933 228.084 212.44C228.964 210.92 230.164 209.773 231.684 209C233.231 208.2 235.031 207.8 237.084 207.8C239.431 207.8 241.364 208.267 242.884 209.2C244.431 210.133 245.591 211.4 246.364 213C247.137 214.6 247.524 216.427 247.524 218.48V219.44C247.524 219.733 247.417 219.973 247.204 220.16C247.017 220.347 246.791 220.44 246.524 220.44H233.724C233.724 220.467 233.724 220.507 233.724 220.56C233.724 220.613 233.724 220.667 233.724 220.72C233.751 221.493 233.884 222.2 234.124 222.84C234.364 223.48 234.737 223.987 235.244 224.36C235.751 224.733 236.364 224.92 237.084 224.92C237.617 224.92 238.057 224.84 238.404 224.68C238.777 224.493 239.084 224.293 239.324 224.08C239.564 223.84 239.751 223.64 239.884 223.48C240.124 223.213 240.311 223.053 240.444 223C240.604 222.92 240.844 222.88 241.164 222.88H246.124C246.391 222.88 246.604 222.96 246.764 223.12C246.951 223.253 247.031 223.453 247.004 223.72C246.977 224.173 246.751 224.72 246.324 225.36C245.897 226 245.271 226.64 244.444 227.28C243.644 227.893 242.631 228.4 241.404 228.8C240.177 229.2 238.751 229.4 237.124 229.4ZM233.724 216.48H240.484V216.4C240.484 215.547 240.351 214.8 240.084 214.16C239.844 213.52 239.457 213.027 238.924 212.68C238.417 212.333 237.804 212.16 237.084 212.16C236.364 212.16 235.751 212.333 235.244 212.68C234.764 213.027 234.391 213.52 234.124 214.16C233.857 214.8 233.724 215.547 233.724 216.4V216.48ZM260.834 229.4C258.861 229.4 257.114 229.04 255.594 228.32C254.074 227.6 252.861 226.56 251.954 225.2C251.074 223.813 250.594 222.16 250.514 220.24C250.487 219.813 250.474 219.28 250.474 218.64C250.474 217.973 250.487 217.427 250.514 217C250.594 215.053 251.074 213.4 251.954 212.04C252.834 210.653 254.034 209.6 255.554 208.88C257.101 208.16 258.861 207.8 260.834 207.8C262.674 207.8 264.247 208.067 265.554 208.6C266.861 209.107 267.927 209.747 268.754 210.52C269.581 211.293 270.194 212.093 270.594 212.92C271.021 213.72 271.247 214.427 271.274 215.04C271.301 215.307 271.207 215.547 270.994 215.76C270.781 215.947 270.541 216.04 270.274 216.04H265.194C264.901 216.04 264.674 215.973 264.514 215.84C264.354 215.707 264.207 215.507 264.074 215.24C263.754 214.413 263.341 213.827 262.834 213.48C262.354 213.133 261.727 212.96 260.954 212.96C259.887 212.96 259.061 213.307 258.474 214C257.914 214.693 257.607 215.76 257.554 217.2C257.527 218.267 257.527 219.213 257.554 220.04C257.607 221.507 257.914 222.573 258.474 223.24C259.061 223.907 259.887 224.24 260.954 224.24C261.781 224.24 262.434 224.067 262.914 223.72C263.394 223.373 263.781 222.787 264.074 221.96C264.207 221.693 264.354 221.493 264.514 221.36C264.674 221.227 264.901 221.16 265.194 221.16H270.274C270.541 221.16 270.781 221.267 270.994 221.48C271.207 221.667 271.301 221.893 271.274 222.16C271.247 222.613 271.114 223.147 270.874 223.76C270.634 224.347 270.261 224.973 269.754 225.64C269.247 226.307 268.581 226.933 267.754 227.52C266.954 228.08 265.981 228.533 264.834 228.88C263.687 229.227 262.354 229.4 260.834 229.4ZM284.468 229.4C281.321 229.4 278.814 228.547 276.948 226.84C275.081 225.133 274.108 222.6 274.028 219.24C274.028 219.053 274.028 218.813 274.028 218.52C274.028 218.227 274.028 218 274.028 217.84C274.108 215.733 274.574 213.933 275.428 212.44C276.308 210.92 277.508 209.773 279.028 209C280.574 208.2 282.374 207.8 284.428 207.8C286.774 207.8 288.708 208.267 290.228 209.2C291.774 210.133 292.934 211.4 293.708 213C294.481 214.6 294.868 216.427 294.868 218.48V219.44C294.868 219.733 294.761 219.973 294.548 220.16C294.361 220.347 294.134 220.44 293.868 220.44H281.068C281.068 220.467 281.068 220.507 281.068 220.56C281.068 220.613 281.068 220.667 281.068 220.72C281.094 221.493 281.228 222.2 281.468 222.84C281.708 223.48 282.081 223.987 282.588 224.36C283.094 224.733 283.708 224.92 284.428 224.92C284.961 224.92 285.401 224.84 285.748 224.68C286.121 224.493 286.428 224.293 286.668 224.08C286.908 223.84 287.094 223.64 287.228 223.48C287.468 223.213 287.654 223.053 287.788 223C287.948 222.92 288.188 222.88 288.508 222.88H293.468C293.734 222.88 293.948 222.96 294.108 223.12C294.294 223.253 294.374 223.453 294.348 223.72C294.321 224.173 294.094 224.72 293.668 225.36C293.241 226 292.614 226.64 291.788 227.28C290.988 227.893 289.974 228.4 288.748 228.8C287.521 229.2 286.094 229.4 284.468 229.4ZM281.068 216.48H287.828V216.4C287.828 215.547 287.694 214.8 287.428 214.16C287.188 213.52 286.801 213.027 286.268 212.68C285.761 212.333 285.148 212.16 284.428 212.16C283.708 212.16 283.094 212.333 282.588 212.68C282.108 213.027 281.734 213.52 281.468 214.16C281.201 214.8 281.068 215.547 281.068 216.4V216.48ZM299.618 229C299.324 229 299.084 228.907 298.898 228.72C298.711 228.533 298.618 228.293 298.618 228V209.2C298.618 208.933 298.711 208.707 298.898 208.52C299.084 208.307 299.324 208.2 299.618 208.2H304.218C304.511 208.2 304.751 208.307 304.938 208.52C305.124 208.707 305.218 208.933 305.218 209.2V210.8C305.938 209.973 306.791 209.333 307.778 208.88C308.791 208.427 309.924 208.2 311.178 208.2H312.938C313.204 208.2 313.431 208.293 313.618 208.48C313.831 208.667 313.938 208.907 313.938 209.2V213.32C313.938 213.587 313.831 213.827 313.618 214.04C313.431 214.227 313.204 214.32 312.938 214.32H309.058C307.964 214.32 307.111 214.627 306.498 215.24C305.911 215.827 305.618 216.667 305.618 217.76V228C305.618 228.293 305.511 228.533 305.298 228.72C305.111 228.907 304.871 229 304.578 229H299.618ZM317.782 229C317.489 229 317.249 228.907 317.062 228.72C316.875 228.533 316.782 228.293 316.782 228V209.2C316.782 208.907 316.875 208.667 317.062 208.48C317.249 208.293 317.489 208.2 317.782 208.2H322.502C322.769 208.2 322.995 208.293 323.182 208.48C323.395 208.667 323.502 208.907 323.502 209.2V228C323.502 228.293 323.395 228.533 323.182 228.72C322.995 228.907 322.769 229 322.502 229H317.782ZM317.742 205.2C317.449 205.2 317.209 205.107 317.022 204.92C316.835 204.733 316.742 204.493 316.742 204.2V200.64C316.742 200.347 316.835 200.107 317.022 199.92C317.209 199.707 317.449 199.6 317.742 199.6H322.502C322.795 199.6 323.035 199.707 323.222 199.92C323.435 200.107 323.542 200.347 323.542 200.64V204.2C323.542 204.493 323.435 204.733 323.222 204.92C323.035 205.107 322.795 205.2 322.502 205.2H317.742ZM329.188 229C328.895 229 328.655 228.907 328.468 228.72C328.281 228.533 328.188 228.293 328.188 228V201.6C328.188 201.307 328.281 201.067 328.468 200.88C328.655 200.693 328.895 200.6 329.188 200.6H333.908C334.201 200.6 334.441 200.693 334.628 200.88C334.815 201.067 334.908 201.307 334.908 201.6V228C334.908 228.293 334.815 228.533 334.628 228.72C334.441 228.907 334.201 229 333.908 229H329.188ZM349.233 229.4C346.087 229.4 343.58 228.547 341.713 226.84C339.847 225.133 338.873 222.6 338.793 219.24C338.793 219.053 338.793 218.813 338.793 218.52C338.793 218.227 338.793 218 338.793 217.84C338.873 215.733 339.34 213.933 340.193 212.44C341.073 210.92 342.273 209.773 343.793 209C345.34 208.2 347.14 207.8 349.193 207.8C351.54 207.8 353.473 208.267 354.993 209.2C356.54 210.133 357.7 211.4 358.473 213C359.247 214.6 359.633 216.427 359.633 218.48V219.44C359.633 219.733 359.527 219.973 359.313 220.16C359.127 220.347 358.9 220.44 358.633 220.44H345.833C345.833 220.467 345.833 220.507 345.833 220.56C345.833 220.613 345.833 220.667 345.833 220.72C345.86 221.493 345.993 222.2 346.233 222.84C346.473 223.48 346.847 223.987 347.353 224.36C347.86 224.733 348.473 224.92 349.193 224.92C349.727 224.92 350.167 224.84 350.513 224.68C350.887 224.493 351.193 224.293 351.433 224.08C351.673 223.84 351.86 223.64 351.993 223.48C352.233 223.213 352.42 223.053 352.553 223C352.713 222.92 352.953 222.88 353.273 222.88H358.233C358.5 222.88 358.713 222.96 358.873 223.12C359.06 223.253 359.14 223.453 359.113 223.72C359.087 224.173 358.86 224.72 358.433 225.36C358.007 226 357.38 226.64 356.553 227.28C355.753 227.893 354.74 228.4 353.513 228.8C352.287 229.2 350.86 229.4 349.233 229.4ZM345.833 216.48H352.593V216.4C352.593 215.547 352.46 214.8 352.193 214.16C351.953 213.52 351.567 213.027 351.033 212.68C350.527 212.333 349.913 212.16 349.193 212.16C348.473 212.16 347.86 212.333 347.353 212.68C346.873 213.027 346.5 213.52 346.233 214.16C345.967 214.8 345.833 215.547 345.833 216.4V216.48ZM364.383 229C364.09 229 363.85 228.907 363.663 228.72C363.477 228.533 363.383 228.293 363.383 228V209.2C363.383 208.933 363.477 208.707 363.663 208.52C363.85 208.307 364.09 208.2 364.383 208.2H368.983C369.277 208.2 369.517 208.307 369.703 208.52C369.89 208.707 369.983 208.933 369.983 209.2V210.8C370.703 209.973 371.557 209.333 372.543 208.88C373.557 208.427 374.69 208.2 375.943 208.2H377.703C377.97 208.2 378.197 208.293 378.383 208.48C378.597 208.667 378.703 208.907 378.703 209.2V213.32C378.703 213.587 378.597 213.827 378.383 214.04C378.197 214.227 377.97 214.32 377.703 214.32H373.823C372.73 214.32 371.877 214.627 371.263 215.24C370.677 215.827 370.383 216.667 370.383 217.76V228C370.383 228.293 370.277 228.533 370.063 228.72C369.877 228.907 369.637 229 369.343 229H364.383Z" fill="#2B303F"/>
<circle cx="31.5" cy="145.5" r="16.5" fill="#F14842"/>
<ellipse cx="241" cy="16.5" rx="17" ry="16.5" fill="#F14842"/>
<circle cx="169.5" cy="437.5" r="31.5" fill="#0060B9"/>
<circle cx="82" cy="61" r="32" fill="#0060B9"/>
<g opacity="0.15">
<path d="M47.5601 328.15C62.9965 328.15 75.5101 315.636 75.5101 300.2C75.5101 284.764 62.9965 272.25 47.5601 272.25C32.1237 272.25 19.6101 284.764 19.6101 300.2C19.6101 315.636 32.1237 328.15 47.5601 328.15Z" fill="url(#paint0_radial_31_35)"/>
</g>
<defs>
<radialGradient id="paint0_radial_31_35" cx="0" cy="0" r="1" gradientUnits="userSpaceOnUse" gradientTransform="translate(40.8299 289.277) rotate(5.10053) scale(53.389)">
<stop stop-color="#F6EEEA"/>
<stop offset="0.1266" stop-color="#EFE5E1"/>
<stop offset="0.3229" stop-color="#DECFC9"/>
<stop offset="0.4032" stop-color="#D5C4BC"/>
<stop offset="0.5105" stop-color="#D1BCB2"/>
<stop offset="0.6452" stop-color="#C7AA9C"/>
<stop offset="1" stop-color="#D5C4BC"/>
</radialGradient>
</defs>
</svg>
