<svg width="52" height="52" viewBox="0 0 52 52" fill="none" xmlns="http://www.w3.org/2000/svg">
<g clip-path="url(#clip0_21_397)">
<path d="M47.8657 5.03711H6.40066C4.79368 5.03711 3.49097 6.33982 3.49097 7.9468V50.2616C3.49097 51.2084 4.25845 51.976 5.2053 51.976H40.2539C41.2007 51.976 41.9683 51.2085 41.9683 50.2616V15.344C41.9683 14.4469 42.277 13.5772 42.8427 12.881L48.3643 6.0845C48.7053 5.66465 48.4067 5.03711 47.8657 5.03711Z" fill="#DBF5FF"/>
<path d="M41.9676 50.2616V15.344C41.9676 14.4469 42.2763 13.5772 42.842 12.881L48.3636 6.0845C48.7047 5.66475 48.406 5.03711 47.8651 5.03711H22.729V51.976H40.2534C41.2 51.976 41.9676 51.2084 41.9676 50.2616Z" fill="#B3DDFF"/>
<path d="M41.9683 50.2851V33.4741L39.1251 32.4799C37.4932 31.9094 35.8411 31.3991 34.1761 30.9338C33.6783 30.7946 33.1934 30.6019 32.6851 30.5084C21.9253 28.5299 18.5231 33.8881 12.5747 35.3182C9.95485 35.948 7.26981 36.2663 4.57532 36.2663H3.49097V50.2851C3.49097 51.2319 4.25845 51.9994 5.2053 51.9994H40.2539C41.2008 51.9994 41.9683 51.2318 41.9683 50.2851Z" fill="#FF5CA8"/>
<path d="M8.63112 12.2437H3.49097V15.381H8.63112C9.49742 15.381 10.1998 14.6788 10.1998 13.8123C10.1998 12.9459 9.49752 12.2437 8.63112 12.2437Z" fill="#59A7FF"/>
<path d="M8.63112 19.5908H3.49097V22.7282H8.63112C9.49742 22.7282 10.1998 22.0259 10.1998 21.1595C10.1998 20.2931 9.49752 19.5908 8.63112 19.5908Z" fill="#59A7FF"/>
<path d="M8.63112 34.4941H3.49097V36.2663L5.86462 36.5944C6.73093 36.5944 10.1998 36.9291 10.1998 36.0628C10.1998 35.1965 9.49752 34.4941 8.63112 34.4941Z" fill="#59A7FF"/>
<path d="M8.63112 41.6323H3.49097V44.7697H8.63112C9.49742 44.7697 10.1998 44.0674 10.1998 43.201C10.1998 42.3346 9.49752 41.6323 8.63112 41.6323Z" fill="#CC2995"/>
<path d="M10.5135 26.938H3.49097V30.0754H10.5135C11.3798 30.0754 12.0822 29.3731 12.0822 28.5067C12.0822 27.6403 11.3799 26.938 10.5135 26.938Z" fill="#59A7FF"/>
<path d="M19.4437 41.428C20.3101 41.428 21.0125 40.7257 21.0125 39.8593C21.0125 38.9929 20.3101 38.2905 19.4437 38.2905C18.5773 38.2905 17.875 38.9929 17.875 39.8593C17.875 40.7257 18.5773 41.428 19.4437 41.428Z" fill="#FFB3E5"/>
<path d="M14.6923 47.4114C15.5587 47.4114 16.261 46.7091 16.261 45.8427C16.261 44.9763 15.5587 44.2739 14.6923 44.2739C13.8259 44.2739 13.1235 44.9763 13.1235 45.8427C13.1235 46.7091 13.8259 47.4114 14.6923 47.4114Z" fill="#FFB3E5"/>
<path d="M34.1765 30.9336C33.6788 30.7945 33.1938 30.6017 32.6855 30.5083C28.4137 29.7228 25.3022 30.0942 22.73 30.9166V51.9758H40.5248C41.3428 51.8458 41.9686 51.1394 41.9686 50.2848V33.4739L39.1254 32.4797C37.4935 31.9091 35.8415 31.3989 34.1765 30.9336Z" fill="#FF1786"/>
<path d="M8.63112 37.6315C9.49742 37.6315 10.1998 36.9291 10.1998 36.0628C10.1998 35.9745 10.1908 35.8885 10.1768 35.8042C8.32674 36.1111 6.45337 36.2662 4.57532 36.2662H3.49097V37.6314H8.63112V37.6315Z" fill="#CC2995"/>
<path d="M31.7212 38.982C31.654 38.982 31.5862 38.9776 31.5178 38.9688C30.6586 38.8575 30.0523 38.0708 30.1636 37.2116L34.8069 1.36664C34.9182 0.507443 35.7049 -0.0976508 36.5641 0.0124402C37.4233 0.12375 38.0296 0.910433 37.9183 1.76963L33.275 37.6146C33.1725 38.4053 32.4978 38.982 31.7212 38.982Z" fill="#CCBEB9"/>
<path d="M34.3304 5.03711L30.1626 37.2114C30.0513 38.0706 30.6576 38.8573 31.5168 38.9686C31.5852 38.9774 31.6531 38.9818 31.7202 38.9818C32.4968 38.9818 33.1715 38.4052 33.274 37.6144L37.494 5.03711H34.3304Z" fill="#59A7FF"/>
<path d="M31.5168 38.9691C31.5852 38.9779 31.653 38.9823 31.7202 38.9823C32.4968 38.9823 33.1715 38.4057 33.274 37.6149L34.1407 30.9239C33.6551 30.7857 33.1809 30.6 32.6845 30.5087C32.1244 30.4058 31.5848 30.3231 31.0633 30.2583L30.1626 37.2118C30.0513 38.0711 30.6576 38.8578 31.5168 38.9691Z" fill="#991F70"/>
<path d="M31.3692 45.0763C34.1271 45.0763 36.3629 42.8405 36.3629 40.0826C36.3629 37.3246 34.1271 35.0889 31.3692 35.0889C28.6112 35.0889 26.3755 37.3246 26.3755 40.0826C26.3755 42.8405 28.6112 45.0763 31.3692 45.0763Z" fill="#991F70"/>
</g>
<defs>
<clipPath id="clip0_21_397">
<rect width="52" height="52" fill="white"/>
</clipPath>
</defs>
</svg>
