<svg width="60" height="60" viewBox="0 0 60 60" fill="none" xmlns="http://www.w3.org/2000/svg">
<g clip-path="url(#clip0_21_372)">
<path d="M30 59.0847C46.075 59.0847 59.1064 46.0633 59.1064 30.0006C59.1064 13.9379 46.075 0.916504 30 0.916504C13.9249 0.916504 0.893555 13.9379 0.893555 30.0006C0.893555 46.0633 13.9249 59.0847 30 59.0847Z" fill="#A4CEFF"/>
<path d="M30.0117 0.916016V59.084C46.0812 59.0775 59.1061 46.0586 59.1061 30C59.1061 13.9414 46.0812 0.922492 30.0117 0.916016Z" fill="#59A7FF"/>
<path d="M30.0121 51.2839C41.7778 51.2839 51.3157 41.7533 51.3157 29.9967C51.3157 18.2401 41.7778 8.70947 30.0121 8.70947C18.2464 8.70947 8.7085 18.2401 8.7085 29.9967C8.7085 41.7533 18.2464 51.2839 30.0121 51.2839Z" fill="#FFF5F5"/>
<path d="M51.3153 29.9967C51.3153 18.2401 41.7774 8.70947 30.0117 8.70947V51.2841C41.7773 51.2841 51.3153 41.7534 51.3153 29.9967Z" fill="#EEE1DC"/>
<path d="M44.8272 45.2821C40.6134 42.3995 35.5172 40.7124 30.0264 40.7124C24.5234 40.7124 19.4168 42.4072 15.1975 45.3016L22.9176 50.151L33.2107 51.9434L40.0636 48.7692L44.8272 45.2821Z" fill="#59A7FF"/>
<path d="M30.0117 40.713V51.3869L33.2101 51.9439L40.063 48.7697L44.8266 45.2826C40.6128 42.4 35.5166 40.7129 30.0258 40.7129C30.021 40.7129 30.0164 40.713 30.0117 40.713Z" fill="#0082FF"/>
<path d="M32.8464 28.8301H32.8473L30.4521 23.0574C30.3015 22.6945 29.7883 22.6919 29.634 23.0532L27.085 29.0207H27.0859C26.8549 29.5435 26.7586 30.1387 26.8451 30.7633C27.045 32.2062 28.2286 33.3464 29.6779 33.493C31.6038 33.6877 33.2217 32.1751 33.2104 30.2924C33.2072 29.7645 33.0755 29.2676 32.8464 28.8301Z" fill="#FA184B"/>
<path d="M13.5519 31.8066H8.70921C7.70949 31.8066 6.89893 30.996 6.89893 29.9963C6.89893 28.9966 7.70949 28.186 8.70921 28.186H13.5519C14.5516 28.186 15.3622 28.9966 15.3622 29.9963C15.3622 30.996 14.5516 31.8066 13.5519 31.8066Z" fill="#0E365C"/>
<path d="M51.3155 31.8105H46.4729C45.4732 31.8105 44.6626 31 44.6626 30.0002C44.6626 29.0005 45.4732 28.1899 46.4729 28.1899H51.3155C52.3152 28.1899 53.1257 29.0005 53.1257 30.0002C53.1259 31.0001 52.3153 31.8105 51.3155 31.8105Z" fill="#1B0428"/>
<path d="M30.0122 15.3621C29.0125 15.3621 28.2019 14.5515 28.2019 13.5518V8.70921C28.2019 7.70949 29.0125 6.89893 30.0122 6.89893C31.0119 6.89893 31.8225 7.70949 31.8225 8.70921V13.5518C31.8225 14.5517 31.0119 15.3621 30.0122 15.3621Z" fill="#0E365C"/>
<path d="M17.7066 20.8648C17.2433 20.8648 16.78 20.6881 16.4266 20.3345L13.0024 16.9102C12.2954 16.2033 12.2954 15.0571 13.0024 14.3501C13.7093 13.6431 14.8555 13.6431 15.5625 14.3501L18.9867 17.7743C19.6937 18.4813 19.6937 19.6275 18.9867 20.3345C18.6331 20.6881 18.1699 20.8648 17.7066 20.8648Z" fill="#0E365C"/>
<path d="M42.2189 20.7676C41.7556 20.7676 41.2923 20.5909 40.9389 20.2373C40.2319 19.5303 40.2319 18.3841 40.9389 17.6772L44.3631 14.253C45.07 13.5459 46.2163 13.5459 46.9233 14.253C47.6302 14.9599 47.6302 16.1061 46.9233 16.8131L43.499 20.2373C43.1455 20.5907 42.6822 20.7676 42.2189 20.7676Z" fill="#1B0428"/>
<path d="M30.0117 6.89893V15.3621C31.0114 15.3621 31.822 14.5515 31.822 13.5518V8.70917C31.822 7.70945 31.0114 6.89893 30.0117 6.89893Z" fill="#1B0428"/>
<path d="M32.847 28.8286L30.4517 23.0559C30.3716 22.8626 30.1886 22.7726 30.0117 22.7842V33.5078C31.7869 33.5074 33.2207 32.0635 33.21 30.2908C33.2068 29.7629 33.0752 29.2662 32.8461 28.8287H32.847V28.8286Z" fill="#BD0533"/>
<path d="M30.0128 53.0941C17.2677 53.0941 6.89893 42.7325 6.89893 29.9966C6.89893 17.2606 17.2677 6.89893 30.0128 6.89893C42.7579 6.89893 53.1267 17.2605 53.1267 29.9966C53.1267 42.7327 42.7579 53.0941 30.0128 53.0941ZM30.0128 10.5195C19.2641 10.5195 10.5195 19.2568 10.5195 29.9964C10.5195 40.736 19.2641 49.4734 30.0128 49.4734C40.7615 49.4734 49.5061 40.7361 49.5061 29.9964C49.5061 19.2567 40.7615 10.5195 30.0128 10.5195Z" fill="#194D80"/>
<path d="M30.0117 6.89893V10.5195C40.7604 10.5195 49.5049 19.2569 49.5049 29.9966C49.5049 40.7361 40.7603 49.4736 30.0117 49.4736V53.0941C42.7568 53.0941 53.1256 42.7326 53.1256 29.9966C53.1256 17.2607 42.7568 6.89893 30.0117 6.89893Z" fill="#0E365C"/>
</g>
<defs>
<clipPath id="clip0_21_372">
<rect width="60" height="60" fill="white"/>
</clipPath>
</defs>
</svg>
