<svg width="54" height="54" viewBox="0 0 54 54" fill="none" xmlns="http://www.w3.org/2000/svg">
<path d="M11.4964 43.2465C7.30772 43.2465 4.38128 41.9925 3.12175 39.607V39.6068C1.57861 36.6842 2.84952 32.653 6.70021 28.2559C10.2113 24.2466 15.543 20.2445 21.7132 16.9868C27.8835 13.729 34.1955 11.5836 39.4865 10.9457C45.2895 10.2459 49.335 11.4703 50.878 14.3931C52.421 17.3157 51.1502 21.3469 47.2995 25.7441C43.7885 29.7533 38.4568 33.7555 32.2866 37.0133C26.1163 40.271 19.8043 42.4164 14.5132 43.0544C13.4469 43.183 12.4395 43.2465 11.4964 43.2465ZM5.93327 38.1225C6.79236 39.7497 9.85745 40.4134 14.1327 39.8978C19.0474 39.3054 24.9673 37.2824 30.8023 34.2018C36.6371 31.1211 41.6466 27.3736 44.9079 23.6496C47.7448 20.4101 48.9257 17.5047 48.0666 15.8775C47.2076 14.2504 44.1426 13.5867 39.8671 14.1023C34.9526 14.6948 29.0326 16.7177 23.1976 19.7984C17.3627 22.879 12.3532 26.6266 9.09199 30.3505C6.25517 33.5901 5.0743 36.4955 5.93327 38.1225Z" fill="#FF8856"/>
<path d="M39.4863 10.9457C35.7002 11.4021 31.3913 12.6308 26.9856 14.4863V17.9511C31.5469 15.9093 36.0156 14.5664 39.8668 14.1021C44.1423 13.5866 47.2073 14.2503 48.0662 15.8773C48.9252 17.5045 47.7443 20.4099 44.9075 23.6494C41.6463 27.3735 36.6369 31.1209 30.8019 34.2016C29.5301 34.8731 28.2542 35.4943 26.9856 36.0614V39.5252C28.746 38.7849 30.522 37.9447 32.2863 37.0132C38.4566 33.7554 43.7883 29.7532 47.2993 25.744C51.1499 21.3468 52.4208 17.3156 50.8778 14.393C49.3346 11.4702 45.2893 10.2459 39.4863 10.9457Z" fill="#FF641A"/>
<path d="M42.3554 43.8125C41.1606 43.8125 39.854 43.6929 38.4457 43.4511C33.2924 42.5656 27.2129 40.1528 21.3272 36.657C15.4414 33.1614 10.4138 28.9775 7.17064 24.8761C3.6138 20.378 2.56694 16.3654 4.22279 13.5774C5.87864 10.7894 9.90299 9.789 15.5547 10.7598C20.7078 11.6453 26.7873 14.0581 32.6732 17.5537C38.5589 21.0494 43.5864 25.2334 46.8296 29.3348C50.3865 33.8329 51.4334 37.8455 49.7775 40.6335C48.5343 42.7267 45.9551 43.8125 42.3554 43.8125ZM11.6055 13.5139C9.22894 13.5139 7.54968 14.0844 6.90474 15.1703C5.98292 16.7223 6.99699 19.6273 9.61747 22.9412C12.6298 26.7508 17.3541 30.6694 22.92 33.9751C28.4859 37.2808 34.1872 39.5543 38.9738 40.3767C43.1376 41.0922 46.1737 40.5926 47.0956 39.0405C48.0174 37.4885 47.0033 34.5835 44.3828 31.2695C41.3704 27.46 36.6462 23.5414 31.0802 20.2356C25.5143 16.9299 19.8129 14.6565 15.0264 13.8341C13.7756 13.6192 12.626 13.5139 11.6055 13.5139Z" fill="#00FFE7"/>
<path d="M32.6729 17.5534C30.7849 16.4321 28.8771 15.4229 26.9861 14.5391V18.001C28.3485 18.68 29.7183 19.4265 31.0799 20.2352C36.6459 23.541 41.3701 27.4596 44.3825 31.2691C47.0029 34.5831 48.0172 37.4881 47.0953 39.0401C46.1734 40.5922 43.1373 41.0916 38.9735 40.3763C35.35 39.7537 31.2023 38.299 26.9861 36.1951V39.6583C30.9995 41.5366 34.937 42.8479 38.4453 43.4506C39.8537 43.6926 41.1602 43.8121 42.355 43.8121C45.9547 43.8121 48.5339 42.7262 49.7771 40.6331C51.433 37.8451 50.386 33.8326 46.8292 29.3344C43.5862 25.2331 38.5586 21.0491 32.6729 17.5534Z" fill="#00DDC1"/>
<path d="M27.2835 54C24.0068 54.0001 21.0239 51.0372 18.8773 45.6461C16.9058 40.6948 15.7696 34.1258 15.6779 27.1488C15.5861 20.172 16.5494 13.5753 18.39 8.57385C20.4087 3.08861 23.3404 0.0438609 26.6452 0.000421739C26.6689 0.000105435 26.693 0 26.7168 0C29.9935 0 32.9763 2.96272 35.1229 8.35381C37.0943 13.3051 38.2306 19.8742 38.3224 26.8512C38.4141 33.828 37.4509 40.4247 35.6101 45.4261C33.5914 50.9114 30.6596 53.9561 27.355 53.9996C27.3312 53.9999 27.3072 54 27.2835 54ZM26.7149 3.17939C26.7055 3.17939 26.6963 3.17949 26.6871 3.1796C24.8473 3.20374 22.861 5.63085 21.3737 9.67195C19.664 14.3175 18.7702 20.5094 18.8568 27.107C18.9436 33.7046 19.9999 39.8709 21.831 44.4699C23.4159 48.4502 25.4528 50.8206 27.2853 50.8206C27.2947 50.8206 27.3038 50.8206 27.3131 50.8204C29.1529 50.7963 31.1391 48.3691 32.6264 44.328C34.3361 39.6825 35.2299 33.4906 35.1432 26.8929C35.0565 20.2951 34.0002 14.1289 32.169 9.52993C30.5841 5.54956 28.5473 3.17939 26.7149 3.17939Z" fill="#1F5C99"/>
<path d="M31.8638 29.8883C30.2686 32.5742 26.7981 33.4583 24.1123 31.8631C21.4264 30.2679 20.5422 26.7974 22.1375 24.1115C23.7327 21.4257 27.2032 20.5415 29.889 22.1367C32.5749 23.732 33.4591 27.2025 31.8638 29.8883Z" fill="#FA184B"/>
<path d="M29.8885 22.1381C28.9742 21.595 27.9688 21.3399 26.9775 21.3448V32.6571C28.914 32.663 30.8029 31.675 31.8634 29.8897C33.4586 27.2039 32.5744 23.7333 29.8885 22.1381Z" fill="#BD0533"/>
<path d="M35.1225 8.35354C33.0349 3.11048 30.1563 0.165266 26.9857 0.00732422V3.19778C28.7458 3.41719 30.6615 5.74456 32.1687 9.52967C33.9999 14.1286 35.0562 20.295 35.1429 26.8927C35.2295 33.4904 34.3358 39.6822 32.626 44.3278C31.1388 48.3689 29.1525 50.7961 27.3128 50.8201C27.3035 50.8204 27.2943 50.8204 27.2849 50.8204C27.1858 50.8204 27.0859 50.812 26.9856 50.7983V53.9913C27.0845 53.9968 27.1836 53.9997 27.283 53.9997C27.3069 53.9997 27.3308 53.9996 27.3545 53.9993C30.6592 53.9559 33.591 50.911 35.6096 45.4259C37.4504 40.4245 38.4136 33.8277 38.3219 26.8509C38.2302 19.8741 37.0939 13.3049 35.1225 8.35354Z" fill="#0E365C"/>
<path d="M50.0093 42.6416C48.9353 44.4499 46.5987 45.0452 44.7904 43.9712C42.9821 42.8973 42.3868 40.5606 43.4609 38.7523C44.5348 36.944 46.8715 36.3487 48.6798 37.4227C50.4881 38.4968 51.0834 40.8333 50.0093 42.6416Z" fill="#FFD396"/>
<path d="M48.6797 37.4238C48.064 37.0582 47.3872 36.8864 46.7197 36.8897V44.506C48.0234 44.51 49.2953 43.8448 50.0092 42.6427C51.0832 40.8344 50.488 38.4978 48.6797 37.4238Z" fill="#FF9F00"/>
<path d="M11.5244 14.5835C10.4505 16.3918 8.11384 16.9871 6.30552 15.9131C4.49721 14.8392 3.90193 12.5025 4.97599 10.6942C6.04995 8.88591 8.3866 8.29063 10.1949 9.36459C12.0032 10.4385 12.5985 12.7752 11.5244 14.5835Z" fill="#FFD396"/>
<path d="M10.1945 9.36523C9.57891 8.99959 8.90213 8.82783 8.23462 8.8311V16.4474C9.53832 16.4514 10.8102 15.7862 11.5241 14.5842C12.5981 12.7758 12.0029 10.4393 10.1945 9.36523Z" fill="#FF9F00"/>
</svg>
